HIERARCHY
ROOT mixamorig:Hips
{
	OFFSET -0.000008 104.274872 1.554316
	CHANNELS 6 Xposition Yposition Zposition Xrotation Yrotation Zrotation
	JOINT mixamorig:Spine
	{
		OFFSET -0.000005 10.181595 0.131519
		CHANNELS 6 Xposition Yposition Zposition Xrotation Yrotation Zrotation
		JOINT mixamorig:Spine1
		{
			OFFSET -0.000000 9.893959 -1.470707
			CHANNELS 6 Xposition Yposition Zposition Xrotation Yrotation Zrotation
			JOINT mixamorig:Spine2
			{
				OFFSET -0.000000 9.220757 -1.370641
				CHANNELS 6 Xposition Yposition Zposition Xrotation Yrotation Zrotation
				JOINT mixamorig:Neck
				{
					OFFSET 0.000001 16.740417 -2.049036
					CHANNELS 6 Xposition Yposition Zposition Xrotation Yrotation Zrotation
					JOINT mixamorig:Head
					{
						OFFSET 0.000000 9.617874 1.685006
						CHANNELS 6 Xposition Yposition Zposition Xrotation Yrotation Zrotation
						JOINT mixamorig:HeadTop_End
						{
							OFFSET 0.000002 22.037354 7.501101
							CHANNELS 6 Xposition Yposition Zposition Xrotation Yrotation Zrotation
							End Site
							{
								OFFSET 0.000168 2310.654297 -282.823242
							}
						}
					}
				}
				JOINT mixamorig:RightShoulder
				{
					OFFSET -4.569970 11.014908 -2.160885
					CHANNELS 6 Xposition Yposition Zposition Xrotation Yrotation Zrotation
					JOINT mixamorig:RightArm
					{
						OFFSET -10.592851 -0.524811 -2.232101
						CHANNELS 6 Xposition Yposition Zposition Xrotation Yrotation Zrotation
						JOINT mixamorig:RightForeArm
						{
							OFFSET -27.841511 0.000031 -0.000004
							CHANNELS 6 Xposition Yposition Zposition Xrotation Yrotation Zrotation
							JOINT mixamorig:RightHand
							{
								OFFSET -28.328831 -0.000015 0.000015
								CHANNELS 6 Xposition Yposition Zposition Xrotation Yrotation Zrotation
								JOINT mixamorig:RightHandThumb1
								{
									OFFSET -2.464806 -1.573990 2.681852
									CHANNELS 6 Xposition Yposition Zposition Xrotation Yrotation Zrotation
									JOINT mixamorig:RightHandThumb2
									{
										OFFSET -3.215179 -1.872803 1.924282
										CHANNELS 6 Xposition Yposition Zposition Xrotation Yrotation Zrotation
										JOINT mixamorig:RightHandThumb3
										{
											OFFSET -2.654831 -1.527969 1.512609
											CHANNELS 6 Xposition Yposition Zposition Xrotation Yrotation Zrotation
											JOINT mixamorig:RightHandThumb4
											{
												OFFSET -2.018814 -1.152008 1.108052
												CHANNELS 6 Xposition Yposition Zposition Xrotation Yrotation Zrotation
												End Site
												{
													OFFSET -188.809540 -114.533607 132.431396
												}
											}
										}
									}
								}
								JOINT mixamorig:RightHandIndex1
								{
									OFFSET -9.108284 -0.517868 2.259835
									CHANNELS 6 Xposition Yposition Zposition Xrotation Yrotation Zrotation
									JOINT mixamorig:RightHandIndex2
									{
										OFFSET -3.699989 0.000000 0.001215
										CHANNELS 6 Xposition Yposition Zposition Xrotation Yrotation Zrotation
										JOINT mixamorig:RightHandIndex3
										{
											OFFSET -2.850006 0.000031 -0.000522
											CHANNELS 6 Xposition Yposition Zposition Xrotation Yrotation Zrotation
											JOINT mixamorig:RightHandIndex4
											{
												OFFSET -2.772186 -0.000015 -0.000020
												CHANNELS 6 Xposition Yposition Zposition Xrotation Yrotation Zrotation
												End Site
												{
													OFFSET -277.218445 0.000000 -0.050231
												}
											}
										}
									}
								}
								JOINT mixamorig:RightHandMiddle1
								{
									OFFSET -9.532516 -0.000031 -0.000023
									CHANNELS 6 Xposition Yposition Zposition Xrotation Yrotation Zrotation
									JOINT mixamorig:RightHandMiddle2
									{
										OFFSET -3.700005 -0.000015 0.003713
										CHANNELS 6 Xposition Yposition Zposition Xrotation Yrotation Zrotation
										JOINT mixamorig:RightHandMiddle3
										{
											OFFSET -2.949974 0.000015 -0.002054
											CHANNELS 6 Xposition Yposition Zposition Xrotation Yrotation Zrotation
											JOINT mixamorig:RightHandMiddle4
											{
												OFFSET -2.946640 0.000000 -0.000156
												CHANNELS 6 Xposition Yposition Zposition Xrotation Yrotation Zrotation
												End Site
												{
													OFFSET -294.664337 0.000000 -0.113670
												}
											}
										}
									}
								}
								JOINT mixamorig:RightHandRing1
								{
									OFFSET -9.103600 -0.043076 -1.865134
									CHANNELS 6 Xposition Yposition Zposition Xrotation Yrotation Zrotation
									JOINT mixamorig:RightHandRing2
									{
										OFFSET -3.379288 0.000000 -0.001055
										CHANNELS 6 Xposition Yposition Zposition Xrotation Yrotation Zrotation
										JOINT mixamorig:RightHandRing3
										{
											OFFSET -2.889687 -0.000015 0.000379
											CHANNELS 6 Xposition Yposition Zposition Xrotation Yrotation Zrotation
											JOINT mixamorig:RightHandRing4
											{
												OFFSET -2.638809 -0.000015 0.000941
												CHANNELS 6 Xposition Yposition Zposition Xrotation Yrotation Zrotation
												End Site
												{
													OFFSET -263.880371 0.000000 0.516020
												}
											}
										}
									}
								}
								JOINT mixamorig:RightHandPinky1
								{
									OFFSET -8.076683 -0.486710 -3.806280
									CHANNELS 6 Xposition Yposition Zposition Xrotation Yrotation Zrotation
									JOINT mixamorig:RightHandPinky2
									{
										OFFSET -3.600014 -0.000015 -0.003747
										CHANNELS 6 Xposition Yposition Zposition Xrotation Yrotation Zrotation
										JOINT mixamorig:RightHandPinky3
										{
											OFFSET -2.099983 0.000000 -0.005739
											CHANNELS 6 Xposition Yposition Zposition Xrotation Yrotation Zrotation
											JOINT mixamorig:RightHandPinky4
											{
												OFFSET -2.115768 -0.000031 -0.003680
												CHANNELS 6 Xposition Yposition Zposition Xrotation Yrotation Zrotation
												End Site
												{
													OFFSET -211.577087 0.000000 -0.350686
												}
											}
										}
									}
								}
							}
						}
					}
				}
				JOINT mixamorig:LeftShoulder
				{
					OFFSET 4.570447 11.014725 -2.160855
					CHANNELS 6 Xposition Yposition Zposition Xrotation Yrotation Zrotation
					JOINT mixamorig:LeftArm
					{
						OFFSET 10.592371 -0.524597 -2.232119
						CHANNELS 6 Xposition Yposition Zposition Xrotation Yrotation Zrotation
						JOINT mixamorig:LeftForeArm
						{
							OFFSET 27.841532 -0.000031 0.000026
							CHANNELS 6 Xposition Yposition Zposition Xrotation Yrotation Zrotation
							JOINT mixamorig:LeftHand
							{
								OFFSET 28.328846 -0.000061 0.000022
								CHANNELS 6 Xposition Yposition Zposition Xrotation Yrotation Zrotation
								JOINT mixamorig:LeftHandThumb1
								{
									OFFSET 2.466141 -1.576172 2.681732
									CHANNELS 6 Xposition Yposition Zposition Xrotation Yrotation Zrotation
									JOINT mixamorig:LeftHandThumb2
									{
										OFFSET 3.217812 -1.872070 1.916482
										CHANNELS 6 Xposition Yposition Zposition Xrotation Yrotation Zrotation
										JOINT mixamorig:LeftHandThumb3
										{
											OFFSET 2.656029 -1.528778 1.514513
											CHANNELS 6 Xposition Yposition Zposition Xrotation Yrotation Zrotation
											JOINT mixamorig:LeftHandThumb4
											{
												OFFSET 2.020889 -1.154053 1.115139
												CHANNELS 6 Xposition Yposition Zposition Xrotation Yrotation Zrotation
												End Site
												{
													OFFSET 190.885437 -115.081749 130.048782
												}
											}
										}
									}
								}
								JOINT mixamorig:LeftHandIndex1
								{
									OFFSET 9.109314 -0.518021 2.259871
									CHANNELS 6 Xposition Yposition Zposition Xrotation Yrotation Zrotation
									JOINT mixamorig:LeftHandIndex2
									{
										OFFSET 3.699989 0.000000 -0.000322
										CHANNELS 6 Xposition Yposition Zposition Xrotation Yrotation Zrotation
										JOINT mixamorig:LeftHandIndex3
										{
											OFFSET 2.850006 0.000000 0.000352
											CHANNELS 6 Xposition Yposition Zposition Xrotation Yrotation Zrotation
											JOINT mixamorig:LeftHandIndex4
											{
												OFFSET 2.774864 -0.000031 -0.000027
												CHANNELS 6 Xposition Yposition Zposition Xrotation Yrotation Zrotation
												End Site
												{
													OFFSET 277.486267 0.000000 -0.009857
												}
											}
										}
									}
								}
								JOINT mixamorig:LeftHandMiddle1
								{
									OFFSET 9.533394 0.000061 0.000044
									CHANNELS 6 Xposition Yposition Zposition Xrotation Yrotation Zrotation
									JOINT mixamorig:LeftHandMiddle2
									{
										OFFSET 3.699989 -0.000015 -0.000231
										CHANNELS 6 Xposition Yposition Zposition Xrotation Yrotation Zrotation
										JOINT mixamorig:LeftHandMiddle3
										{
											OFFSET 2.949997 -0.000015 -0.000059
											CHANNELS 6 Xposition Yposition Zposition Xrotation Yrotation Zrotation
											JOINT mixamorig:LeftHandMiddle4
											{
												OFFSET 2.952896 0.000031 0.000063
												CHANNELS 6 Xposition Yposition Zposition Xrotation Yrotation Zrotation
												End Site
												{
													OFFSET 295.289337 0.000000 0.022810
												}
											}
										}
									}
								}
								JOINT mixamorig:LeftHandRing1
								{
									OFFSET 9.104523 -0.042999 -1.865074
									CHANNELS 6 Xposition Yposition Zposition Xrotation Yrotation Zrotation
									JOINT mixamorig:LeftHandRing2
									{
										OFFSET 3.150009 -0.000031 0.000043
										CHANNELS 6 Xposition Yposition Zposition Xrotation Yrotation Zrotation
										JOINT mixamorig:LeftHandRing3
										{
											OFFSET 2.949982 -0.000015 0.000040
											CHANNELS 6 Xposition Yposition Zposition Xrotation Yrotation Zrotation
											JOINT mixamorig:LeftHandRing4
											{
												OFFSET 2.644348 0.000000 0.000057
												CHANNELS 6 Xposition Yposition Zposition Xrotation Yrotation Zrotation
												End Site
												{
													OFFSET 264.434631 0.000000 0.012105
												}
											}
										}
									}
								}
								JOINT mixamorig:LeftHandPinky1
								{
									OFFSET 8.077789 -0.486847 -3.806259
									CHANNELS 6 Xposition Yposition Zposition Xrotation Yrotation Zrotation
									JOINT mixamorig:LeftHandPinky2
									{
										OFFSET 3.599953 0.000031 0.014727
										CHANNELS 6 Xposition Yposition Zposition Xrotation Yrotation Zrotation
										JOINT mixamorig:LeftHandPinky3
										{
											OFFSET 2.100021 0.000015 0.007705
											CHANNELS 6 Xposition Yposition Zposition Xrotation Yrotation Zrotation
											JOINT mixamorig:LeftHandPinky4
											{
												OFFSET 2.125504 0.000031 0.007517
												CHANNELS 6 Xposition Yposition Zposition Xrotation Yrotation Zrotation
												End Site
												{
													OFFSET 212.550781 0.000000 0.625752
												}
											}
										}
									}
								}
							}
						}
					}
				}
			}
		}
	}
	JOINT mixamorig:RightUpLeg
	{
		OFFSET -8.207787 -6.751648 -1.599560
		CHANNELS 6 Xposition Yposition Zposition Xrotation Yrotation Zrotation
		JOINT mixamorig:RightLeg
		{
			OFFSET -0.000002 -44.370117 0.345942
			CHANNELS 6 Xposition Yposition Zposition Xrotation Yrotation Zrotation
			JOINT mixamorig:RightFoot
			{
				OFFSET 0.000003 -44.423679 -3.043532
				CHANNELS 6 Xposition Yposition Zposition Xrotation Yrotation Zrotation
				JOINT mixamorig:RightToeBase
				{
					OFFSET -0.000002 -8.728671 10.710558
					CHANNELS 6 Xposition Yposition Zposition Xrotation Yrotation Zrotation
					JOINT mixamorig:RightToe_End
					{
						OFFSET -0.000001 -0.000679 9.278119
						CHANNELS 6 Xposition Yposition Zposition Xrotation Yrotation Zrotation
						End Site
						{
							OFFSET 0.000000 -0.067690 927.812134
						}
					}
				}
			}
		}
	}
	JOINT mixamorig:LeftUpLeg
	{
		OFFSET 8.207793 -6.751686 -1.599556
		CHANNELS 6 Xposition Yposition Zposition Xrotation Yrotation Zrotation
		JOINT mixamorig:LeftLeg
		{
			OFFSET -0.000004 -44.370014 0.346954
			CHANNELS 6 Xposition Yposition Zposition Xrotation Yrotation Zrotation
			JOINT mixamorig:LeftFoot
			{
				OFFSET -0.000001 -44.423672 -3.044401
				CHANNELS 6 Xposition Yposition Zposition Xrotation Yrotation Zrotation
				JOINT mixamorig:LeftToeBase
				{
					OFFSET -0.000002 -8.728669 10.710558
					CHANNELS 6 Xposition Yposition Zposition Xrotation Yrotation Zrotation
					JOINT mixamorig:LeftToe_End
					{
						OFFSET -0.000003 -0.000679 9.278133
						CHANNELS 6 Xposition Yposition Zposition Xrotation Yrotation Zrotation
						End Site
						{
							OFFSET 0.000000 -0.068021 927.813477
						}
					}
				}
			}
		}
	}
}
MOTION
Frames: 3
Frame Time: 0.033333
0.000006 104.270477 1.554256 0.000010 0.000003 -0.000113 -0.000005 10.181587 0.131522 0.000001 -0.000003 0.000084 -0.000000 9.893967 -1.470711 0.000001 0.000000 -0.000000 -0.000000 9.220802 -1.370642 0.000000 -0.000000 -0.000000 0.000001 16.740433 -2.049030 0.000000 -0.000000 -0.000000 0.000000 9.617859 1.685014 0.000000 0.000000 0.000000 0.000002 22.037384 7.501101 0.000000 -0.000000 0.000000 -4.569968 11.014880 -2.160881 0.000008 0.000001 -0.000038 -10.592865 -0.524788 -2.231855 73.978708 38.640084 -29.586453 -27.841511 -0.000005 0.000570 -47.150701 109.484135 63.372169 -28.328827 0.000021 0.000032 -0.000322 -0.000043 0.000006 -2.464437 -1.573713 2.682295 -52.473085 -530.654117 -23.266899 -3.215274 -1.872560 1.924641 -207.992770 31.894388 8.136585 -2.654953 -1.527871 1.513059 146.422658 27.469657 -32.325031 -2.018826 -1.152017 1.108065 -0.000003 -0.000003 0.000002 -9.108386 -0.517548 2.260131 99.780226 16.103839 -19.121238 -3.700053 0.000320 0.001500 456.147955 13.459086 -14.944048 -2.850087 0.000372 -0.000264 453.493142 10.943825 -11.626672 -2.772178 0.000000 -0.000021 -0.000001 0.000000 -0.000000 -9.532597 0.000271 0.000239 92.920305 16.094473 -17.074153 -3.700062 0.000327 0.003972 95.317469 11.566385 -12.581016 -2.950054 0.000338 -0.001807 95.600997 11.516737 -12.684374 -2.946623 0.000001 -0.000158 0.000000 0.000002 -0.000001 -9.103706 -0.042757 -1.864888 89.890057 18.412308 -18.332525 -3.379330 0.000328 -0.000804 93.212165 8.284284 -8.778464 -2.889749 0.000358 0.000646 98.074714 6.356162 -7.371139 -2.638811 -0.000017 0.000937 0.000000 0.000001 -0.000002 -8.076758 -0.486403 -3.806025 83.820648 20.971526 -18.723492 -3.600046 0.000280 -0.003520 87.638027 8.752301 -8.057805 -2.100002 0.000319 -0.005499 89.893479 4.343892 -4.120984 -2.115780 -0.000052 -0.003679 0.000001 0.000000 -0.000011 4.570446 11.014691 -2.160851 -0.000018 0.000010 -0.000021 10.592484 -0.524595 -2.232338 12.187088 -75.883641 9.515832 27.841749 -0.000043 -0.000097 46.828183 -106.487307 60.207332 28.328833 -0.000044 0.000025 0.000022 -0.000089 -0.000000 2.466126 -1.576161 2.681891 -156.445018 55.093989 99.406129 3.217834 -1.872018 1.916570 -118.085624 44.418493 59.545193 2.656073 -1.528716 1.514610 -100.926714 23.507546 38.823608 2.020879 -1.154053 1.115147 -0.000002 0.000002 0.000004 9.109240 -0.517842 2.260108 -97.641912 -20.795257 -23.686196 3.699782 0.000242 -0.000130 -142.157506 -27.819970 -71.698395 2.849928 -0.000014 0.000419 -3.817257 -160.922959 -22.442028 2.774887 -0.000017 -0.000029 0.000000 0.000006 -0.000000 9.533187 0.000095 0.000196 -165.717916 -39.566371 -141.605135 3.700045 0.000209 -0.000383 101.356162 -11.654085 14.200223 2.950009 0.000203 -0.000225 85.954946 3.716492 -3.460976 2.952860 0.000002 0.000057 -0.000002 0.000000 -0.000001 9.104412 -0.043039 -1.864981 -179.175314 -34.817012 -177.365451 3.149986 0.000276 -0.000144 -265.703293 7.734683 -8.334156 2.949893 0.000238 -0.000160 83.409416 20.278973 -18.108887 2.644330 0.000011 0.000054 0.000000 -0.000000 0.000001 8.077566 -0.486833 -3.806146 -173.763182 -22.521432 -147.813790 3.599874 0.000360 0.014560 -244.309801 13.278333 -20.503106 2.099872 0.000289 0.007510 100.115110 22.199237 -26.111492 2.125526 -0.000030 0.007529 0.000003 0.000006 -0.000000 -8.207786 -6.751667 -1.599560 -0.077001 -0.000003 0.000080 -0.000002 -44.370110 0.345938 0.153719 -0.000000 -0.000000 0.000000 -44.423679 -3.043532 -0.076700 0.000000 -0.000002 -0.000006 -8.728667 10.710559 -0.000009 -0.000000 -0.000000 -0.000001 -0.000679 9.278123 0.000000 -0.000000 -0.000000 8.207792 -6.751710 -1.599556 -0.074518 -0.000003 0.000081 -0.000002 -44.370014 0.346960 0.148822 0.000002 0.000000 -0.000001 -44.423664 -3.044403 -0.074314 0.000000 -0.000002 -0.000004 -8.728671 10.710558 0.000007 -0.000000 -0.000000 0.000000 -0.000680 9.278137 -0.000000 0.000000 -0.000001 
0.000006 104.270477 1.554256 0.000010 0.000003 -0.000113 -0.000005 10.181587 0.131522 0.000001 -0.000003 0.000084 -0.000000 9.893967 -1.470711 0.000001 0.000000 -0.000000 -0.000000 9.220802 -1.370642 0.000000 -0.000000 -0.000000 0.000001 16.740433 -2.049030 0.000000 -0.000000 -0.000000 0.000000 9.617859 1.685014 0.000000 0.000000 0.000000 0.000002 22.037384 7.501101 0.000000 -0.000000 0.000000 -4.569968 11.014880 -2.160881 0.000008 0.000001 -0.000038 -10.592864 -0.524785 -2.231853 73.855949 38.732825 -29.596627 -27.841522 -0.000006 0.000566 -47.246734 108.735553 62.782498 -28.328825 0.000009 0.000036 -0.000323 -0.000041 0.000005 -2.464442 -1.573721 2.682290 -51.525957 -529.586203 -20.231763 -3.215275 -1.872571 1.924644 -207.561417 31.982047 8.262330 -2.654962 -1.527869 1.513073 146.817908 27.323122 -33.232415 -2.018830 -1.151985 1.108062 -0.000001 -0.000003 0.000000 -9.108394 -0.517544 2.260138 100.528001 16.828058 -20.235310 -3.700060 0.000308 0.001525 456.763081 14.140682 -15.868577 -2.850097 0.000371 -0.000263 454.192581 11.580795 -12.453123 -2.772174 -0.000016 -0.000021 0.000001 0.000001 0.000001 -9.532603 0.000262 0.000244 93.595865 17.356250 -18.615483 -3.700066 0.000326 0.003990 95.400852 12.385614 -13.496637 -2.950054 0.000329 -0.001811 95.624349 12.005589 -13.227623 -2.946646 0.000001 -0.000156 0.000002 -0.000003 -0.000000 -9.103718 -0.042772 -1.864869 90.542456 19.819085 -19.957714 -3.379329 0.000329 -0.000813 93.108463 8.964413 -9.480378 -2.889740 0.000346 0.000639 98.058581 6.595401 -7.644434 -2.638811 -0.000018 0.000940 -0.000001 0.000003 0.000007 -8.076786 -0.486404 -3.806017 84.073700 22.339039 -20.044904 -3.600054 0.000281 -0.003533 86.999712 9.799078 -8.958134 -2.100028 0.000324 -0.005488 89.287368 4.920235 -4.645071 -2.115769 -0.000067 -0.003681 0.000003 0.000000 -0.000003 4.570446 11.014691 -2.160851 -0.000018 0.000010 -0.000021 10.592484 -0.524591 -2.232336 12.361276 -76.270660 9.719334 27.841753 -0.000075 -0.000101 46.738568 -105.994741 59.656921 28.328831 -0.000029 0.000020 0.000021 -0.000089 0.000001 2.466115 -1.576214 2.681879 -156.002176 58.573059 101.260730 3.217801 -1.872015 1.916533 -115.762909 45.405926 58.288028 2.656080 -1.528723 1.514621 -103.359839 25.818458 41.209260 2.020888 -1.154056 1.115149 0.000003 0.000010 0.000004 9.109250 -0.517852 2.260114 -95.258948 -20.812886 -22.760183 3.699869 -0.000018 -0.000250 -180.851675 -29.226533 -183.210399 2.850078 0.000314 0.000268 -50.393754 -171.042786 -161.099451 2.774878 -0.000001 -0.000009 -0.000000 0.000002 0.000001 9.533162 0.000129 0.000205 -163.655048 -34.867313 -130.859936 3.700065 0.000232 -0.000377 103.129989 -9.677039 12.173823 2.949989 0.000191 -0.000207 81.858096 4.386527 -3.802124 2.952877 0.000004 0.000073 -0.000002 0.000002 0.000001 9.104408 -0.043029 -1.864974 -179.283341 -30.441340 -177.360997 3.149966 0.000272 -0.000137 -265.573355 7.819805 -8.444961 2.949904 0.000222 -0.000180 80.716239 19.297380 -16.441321 2.644327 0.000032 0.000061 -0.000002 0.000001 0.000002 8.077581 -0.486828 -3.806152 -175.800818 -18.650262 -152.759489 3.599865 0.000359 0.014550 -243.816798 14.079003 -21.967861 2.099860 0.000288 0.007510 99.418601 23.128455 -26.891949 2.125494 -0.000001 0.007498 -0.000001 -0.000000 -0.000002 -8.207786 -6.751667 -1.599560 -0.077001 -0.000003 0.000080 -0.000002 -44.370110 0.345938 0.153719 -0.000000 -0.000000 0.000000 -44.423679 -3.043532 -0.076700 0.000000 -0.000002 -0.000006 -8.728667 10.710559 -0.000009 -0.000000 -0.000000 -0.000001 -0.000679 9.278123 0.000000 -0.000000 -0.000000 8.207792 -6.751710 -1.599556 -0.074518 -0.000003 0.000081 -0.000002 -44.370014 0.346960 0.148822 0.000002 0.000000 -0.000001 -44.423664 -3.044403 -0.074314 0.000000 -0.000002 -0.000004 -8.728671 10.710558 0.000007 -0.000000 -0.000000 0.000000 -0.000680 9.278137 -0.000000 0.000000 -0.000001 
0.000006 104.270477 1.554256 0.000010 0.000003 -0.000113 -0.000005 10.181587 0.131522 0.000001 -0.000003 0.000084 -0.000000 9.893967 -1.470711 0.000001 0.000000 -0.000000 -0.000000 9.220802 -1.370642 0.000000 -0.000000 -0.000000 0.000001 16.740433 -2.049030 0.000000 -0.000000 -0.000000 0.000000 9.617859 1.685014 0.000000 0.000000 0.000000 0.000002 22.037384 7.501101 0.000000 -0.000000 0.000000 -4.569968 11.014880 -2.160881 0.000008 0.000001 -0.000038 -10.592866 -0.524781 -2.231878 73.796116 35.858124 -27.306813 -27.841496 0.000006 0.000548 -47.193376 109.877998 63.798912 -28.328817 0.000009 0.000032 -0.000323 -0.000043 0.000006 -2.464422 -1.573716 2.682303 -52.257825 -531.269763 -22.756710 -3.215275 -1.872591 1.924634 -207.532498 32.180194 9.573277 -2.654951 -1.527866 1.513071 146.967448 27.283817 -33.386190 -2.018830 -1.152001 1.108061 -0.000003 -0.000003 0.000000 -9.108355 -0.517551 2.260142 100.111893 16.266374 -19.424395 -3.700074 0.000315 0.001510 456.178800 13.729580 -15.252311 -2.850095 0.000372 -0.000273 453.728975 11.237006 -11.986891 -2.772184 -0.000015 -0.000019 -0.000001 0.000000 -0.000001 -9.532574 0.000266 0.000232 92.787328 15.549233 -16.463017 -3.700077 0.000336 0.003977 94.637284 11.100513 -11.929388 -2.950057 0.000336 -0.001801 95.094811 11.335937 -12.375983 -2.946619 0.000003 -0.000154 0.000001 0.000002 0.000000 -9.103678 -0.042758 -1.864891 90.307996 17.773836 -17.822964 -3.379332 0.000338 -0.000815 92.517023 7.301273 -7.645902 -2.889750 0.000350 0.000631 97.326514 5.847270 -6.696502 -2.638806 -0.000000 0.000942 -0.000001 -0.000002 -0.000001 -8.076733 -0.486390 -3.806037 84.247037 20.240439 -18.197494 -3.600019 0.000282 -0.003537 86.798242 7.166112 -6.447131 -2.100005 0.000327 -0.005513 88.412195 3.331094 -3.033892 -2.115784 -0.000055 -0.003681 0.000003 -0.000001 -0.000003 4.570446 11.014691 -2.160851 -0.000018 0.000010 -0.000021 10.592484 -0.524597 -2.232338 13.249386 -75.848349 10.341528 27.841751 -0.000077 -0.000103 46.909545 -106.049253 59.908525 28.328833 -0.000028 0.000023 0.000019 -0.000089 -0.000000 2.466129 -1.576174 2.681880 -150.188442 57.119120 94.334359 3.217824 -1.872014 1.916521 -115.193394 44.805652 57.541475 2.656076 -1.528740 1.514624 -101.839302 25.425461 40.175033 2.020887 -1.154075 1.115146 0.000003 0.000000 0.000001 9.109253 -0.517848 2.260117 -95.673082 -21.511512 -23.687661 3.699919 -0.000021 -0.000234 -185.059795 -29.969938 -198.687416 2.850082 0.000285 0.000278 -52.602613 -170.253585 -160.428303 2.774889 -0.000030 -0.000014 0.000002 0.000000 -0.000001 9.533169 0.000117 0.000195 -165.785657 -34.908882 -136.751835 3.700042 0.000212 -0.000362 103.573474 -9.812549 12.441685 2.949989 0.000189 -0.000229 82.327863 4.140441 -3.618468 2.952872 0.000004 0.000060 0.000000 -0.000003 0.000001 9.104424 -0.043044 -1.864987 -181.346549 -30.051586 -185.007435 3.149967 0.000272 -0.000143 -265.414266 7.764673 -8.408742 2.949904 0.000229 -0.000175 81.201059 19.345713 -16.622587 2.644330 0.000046 0.000052 -0.000001 -0.000000 0.000001 8.077595 -0.486864 -3.806157 -177.229462 -18.587359 -160.853906 3.599862 0.000369 0.014555 -245.649994 13.484985 -20.307206 2.099862 0.000269 0.007500 97.621537 22.976791 -25.907860 2.125500 -0.000019 0.007486 0.000000 -0.000004 -0.000001 -8.207786 -6.751667 -1.599560 -0.077001 -0.000003 0.000080 -0.000002 -44.370110 0.345938 0.153719 -0.000000 -0.000000 0.000000 -44.423679 -3.043532 -0.076700 0.000000 -0.000002 -0.000006 -8.728667 10.710559 -0.000009 -0.000000 -0.000000 -0.000001 -0.000679 9.278123 0.000000 -0.000000 -0.000000 8.207792 -6.751710 -1.599556 -0.074518 -0.000003 0.000081 -0.000002 -44.370014 0.346960 0.148822 0.000002 0.000000 -0.000001 -44.423664 -3.044403 -0.074314 0.000000 -0.000002 -0.000004 -8.728671 10.710558 0.000007 -0.000000 -0.000000 0.000000 -0.000680 9.278137 -0.000000 0.000000 -0.000001 
